<svg xmlns="http://www.w3.org/2000/svg" viewBox="0 0 512 512" role="img" aria-label="FifthQtr Mascot Avatar">
  <defs>
    <linearGradient id="skin" x1="0" x2="0" y1="0" y2="1">
      <stop offset="0%" stop-color="#f7d6bf"/>
      <stop offset="100%" stop-color="#e9bda0"/>
    </linearGradient>
  </defs>
  <circle cx="256" cy="256" r="248" fill="#0a2342"/>
  <circle cx="256" cy="256" r="236" fill="#ffffff"/>
  <path d="M120 392c40-42 92-64 136-64s96 22 136 64v64H120v-64z" fill="#0a2342"/>
  <path d="M208 340c12 10 28 16 48 16s36-6 48-16v36h-96v-36z" fill="url(#skin)"/>
  <ellipse cx="256" cy="240" rx="110" ry="120" fill="url(#skin)"/>
  <path d="M156 236c0-78 52-126 100-126s100 48 100 126c0 8-1 16-3 24-16-30-62-36-97-36s-81 6-97 36c-2-8-3-16-3-24z" fill="#3b3b3b"/>
  <path d="M200 270c18 18 40 22 56 22s38-4 56-22c-6-6-20-10-56-10s-50 4-56 10z" fill="#3b3b3b"/>
  <circle cx="216" cy="248" r="8" fill="#2d2d2d"/>
  <circle cx="296" cy="248" r="8" fill="#2d2d2d"/>
  <rect x="198" y="232" width="36" height="6" rx="3" fill="#3b3b3b"/>
  <rect x="278" y="232" width="36" height="6" rx="3" fill="#3b3b3b"/>
  <path d="M252 248c-2 10-2 18 0 26" stroke="#d9a88a" stroke-width="4" fill="none"/>
  <path d="M222 292c18 8 50 8 68 0" stroke="#a8735a" stroke-width="4" fill="none" stroke-linecap="round"/>
</svg>
